<svg width="15" height="15" viewBox="0 0 15 15" fill="none" xmlns="http://www.w3.org/2000/svg">
<path d="M4.87946 0.5H10.7595C12.9995 0.5 14.8195 2.32 14.8195 4.56V10.44C14.8195 11.5168 14.3917 12.5495 13.6303 13.3109C12.8689 14.0723 11.8362 14.5 10.7595 14.5H4.87946C2.63946 14.5 0.819458 12.68 0.819458 10.44V4.56C0.819458 3.48322 1.24721 2.45054 2.0086 1.68915C2.77 0.927749 3.80268 0.5 4.87946 0.5ZM4.73946 1.9C4.07111 1.9 3.43014 2.1655 2.95755 2.63809C2.48496 3.11068 2.21946 3.75165 2.21946 4.42V10.58C2.21946 11.973 3.34646 13.1 4.73946 13.1H10.8995C11.5678 13.1 12.2088 12.8345 12.6814 12.3619C13.154 11.8893 13.4195 11.2483 13.4195 10.58V4.42C13.4195 3.027 12.2925 1.9 10.8995 1.9H4.73946ZM11.4945 2.95C11.7265 2.95 11.9491 3.04219 12.1132 3.20628C12.2773 3.37038 12.3695 3.59294 12.3695 3.825C12.3695 4.05706 12.2773 4.27962 12.1132 4.44372C11.9491 4.60781 11.7265 4.7 11.4945 4.7C11.2624 4.7 11.0398 4.60781 10.8757 4.44372C10.7116 4.27962 10.6195 4.05706 10.6195 3.825C10.6195 3.59294 10.7116 3.37038 10.8757 3.20628C11.0398 3.04219 11.2624 2.95 11.4945 2.95ZM7.81946 4C8.74772 4 9.63795 4.36875 10.2943 5.02513C10.9507 5.6815 11.3195 6.57174 11.3195 7.5C11.3195 8.42826 10.9507 9.3185 10.2943 9.97487C9.63795 10.6313 8.74772 11 7.81946 11C6.8912 11 6.00096 10.6313 5.34458 9.97487C4.68821 9.3185 4.31946 8.42826 4.31946 7.5C4.31946 6.57174 4.68821 5.6815 5.34458 5.02513C6.00096 4.36875 6.8912 4 7.81946 4ZM7.81946 5.4C7.2625 5.4 6.72836 5.62125 6.33453 6.01508C5.94071 6.4089 5.71946 6.94305 5.71946 7.5C5.71946 8.05695 5.94071 8.5911 6.33453 8.98492C6.72836 9.37875 7.2625 9.6 7.81946 9.6C8.37641 9.6 8.91056 9.37875 9.30438 8.98492C9.69821 8.5911 9.91946 8.05695 9.91946 7.5C9.91946 6.94305 9.69821 6.4089 9.30438 6.01508C8.91056 5.62125 8.37641 5.4 7.81946 5.4Z" fill="black"/>
</svg>
