<svg width="13" height="15" viewBox="0 0 13 15" fill="none" xmlns="http://www.w3.org/2000/svg">
<path d="M10.48 2.69333C9.94845 2.0863 9.65547 1.30687 9.65555 0.5H7.25222V10.1444C7.23407 10.6665 7.01385 11.1611 6.63802 11.5238C6.26218 11.8866 5.76013 12.0892 5.23778 12.0889C4.13333 12.0889 3.21555 11.1867 3.21555 10.0667C3.21555 8.72889 4.50667 7.72556 5.83667 8.13778V5.68C3.15333 5.32222 0.804443 7.40667 0.804443 10.0667C0.804443 12.6567 2.95111 14.5 5.23 14.5C7.67222 14.5 9.65555 12.5167 9.65555 10.0667V5.17444C10.6301 5.87433 11.8002 6.24984 13 6.24778V3.84444C13 3.84444 11.5378 3.91444 10.48 2.69333Z" fill="black"/>
</svg>
