<svg width="21" height="15" viewBox="0 0 21 15" fill="none" xmlns="http://www.w3.org/2000/svg">
<path d="M8.81946 10.5L14.0095 7.5L8.81946 4.5V10.5ZM20.3795 2.67C20.5095 3.14 20.5995 3.77 20.6595 4.57C20.7295 5.37 20.7595 6.06 20.7595 6.66L20.8195 7.5C20.8195 9.69 20.6595 11.3 20.3795 12.33C20.1295 13.23 19.5495 13.81 18.6495 14.06C18.1795 14.19 17.3195 14.28 15.9995 14.34C14.6995 14.41 13.5095 14.44 12.4095 14.44L10.8195 14.5C6.62946 14.5 4.01946 14.34 2.98946 14.06C2.08946 13.81 1.50946 13.23 1.25946 12.33C1.12946 11.86 1.03946 11.23 0.979458 10.43C0.909458 9.63 0.879458 8.94 0.879458 8.34L0.819458 7.5C0.819458 5.31 0.979458 3.7 1.25946 2.67C1.50946 1.77 2.08946 1.19 2.98946 0.94C3.45946 0.81 4.31946 0.72 5.63946 0.66C6.93946 0.59 8.12946 0.56 9.22946 0.56L10.8195 0.5C15.0095 0.5 17.6195 0.66 18.6495 0.94C19.5495 1.19 20.1295 1.77 20.3795 2.67Z" fill="black"/>
</svg>
